<svg width="24" height="24" viewBox="0 0 24 24" fill="none" xmlns="http://www.w3.org/2000/svg">
<g clip-path="url(#clip0_2_286)">
<path d="M25 3.00095C23.9553 3.75384 22.7987 4.32967 21.5745 4.70629C20.9175 3.93444 20.0443 3.38738 19.0731 3.13908C18.1019 2.89079 17.0795 2.95324 16.1441 3.31801C15.2088 3.68277 14.4055 4.33223 13.8433 5.17856C13.2809 6.02489 12.9866 7.02725 13 8.05007V9.16467C11.0828 9.21546 9.1832 8.78105 7.47019 7.90011C5.75717 7.01916 4.28399 5.71905 3.18182 4.11554C3.18182 4.11554 -1.18182 14.1469 8.63636 18.6053C6.38967 20.1635 3.71327 20.9448 1 20.8345C10.8182 26.4075 22.8182 20.8345 22.8182 8.01664C22.8182 7.70455 22.7855 7.39247 22.7309 7.09153C23.8443 5.96968 24.63 4.55327 25 3.00095Z" stroke="white" stroke-width="2" stroke-linecap="round" stroke-linejoin="round"/>
</g>
<defs>
<clipPath id="clip0_2_286">
<rect width="24" height="24" fill="white"/>
</clipPath>
</defs>
</svg>
