<svg width="223" height="46" viewBox="0 0 223 46" fill="none" xmlns="http://www.w3.org/2000/svg">
<path d="M17.4039 35.0684C13.954 35.0684 10.9922 34.3442 8.51861 32.8957C6.04505 31.415 4.14106 29.371 2.80663 26.7637C1.47221 24.1242 0.805 21.0824 0.805 17.6382C0.805 14.1939 1.47221 11.1521 2.80663 8.51262C4.14106 5.87314 6.04505 3.81304 8.51861 2.33236C10.9922 0.851671 13.954 0.111328 17.4039 0.111328C21.5048 0.111328 24.8571 1.12528 27.4609 3.15317C30.0972 5.14889 31.7408 7.9654 32.3918 11.6027H25.5081C25.085 9.76798 24.1736 8.33558 22.7742 7.30553C21.4072 6.2433 19.5845 5.71219 17.3063 5.71219C14.1493 5.71219 11.6757 6.77442 9.88558 8.89888C8.09551 11.0233 7.20046 13.9365 7.20046 17.6382C7.20046 21.3398 8.09551 24.253 9.88558 26.3774C11.6757 28.4697 14.1493 29.5158 17.3063 29.5158C19.5845 29.5158 21.4072 29.033 22.7742 28.0673C24.1736 27.0695 25.085 25.7015 25.5081 23.9633H32.3918C31.7408 27.4397 30.0972 30.1597 27.4609 32.1231C24.8571 34.0866 21.5048 35.0684 17.4039 35.0684ZM45.1488 35.0684C43.0657 35.0684 41.357 34.7466 40.0227 34.1027C38.6882 33.4268 37.6955 32.5415 37.0446 31.4472C36.3936 30.3528 36.0682 29.1457 36.0682 27.8259C36.0682 25.6049 36.947 23.8023 38.7045 22.4182C40.462 21.0341 43.0983 20.342 46.6134 20.342H52.7648V19.7626C52.7648 18.121 52.2927 16.9139 51.349 16.1414C50.4051 15.3688 49.2334 14.9826 47.8339 14.9826C46.5646 14.9826 45.4579 15.2884 44.5141 15.9C43.5702 16.4794 42.9844 17.3485 42.7566 18.5072H36.654C36.8167 16.7691 37.4025 15.2561 38.4116 13.9686C39.453 12.6811 40.7875 11.6993 42.4149 11.0233C44.0421 10.3152 45.8648 9.96111 47.8827 9.96111C51.3326 9.96111 54.0503 10.8141 56.0357 12.5201C58.021 14.2262 59.0138 16.6403 59.0138 19.7626V34.489H53.6923L53.1065 30.6263C52.3904 31.9139 51.3815 32.9761 50.0796 33.813C48.8103 34.65 47.1666 35.0684 45.1488 35.0684ZM46.5646 30.2401C48.3546 30.2401 49.7379 29.6607 50.7143 28.5019C51.7232 27.3431 52.3579 25.9107 52.6183 24.2047H47.2969C45.637 24.2047 44.449 24.5105 43.733 25.1221C43.0169 25.7015 42.659 26.4257 42.659 27.2948C42.659 28.2283 43.0169 28.9526 43.733 29.4675C44.449 29.9825 45.3929 30.2401 46.5646 30.2401ZM74.0089 35.0684C71.8608 35.0684 69.973 34.7304 68.3457 34.0545C66.7183 33.3463 65.4165 32.3807 64.4401 31.1575C63.4637 29.9342 62.8778 28.518 62.6825 26.9085H68.9804C69.1756 27.8421 69.6963 28.6467 70.5426 29.3227C71.4214 29.9665 72.5443 30.2884 73.9112 30.2884C75.2782 30.2884 76.2708 30.0148 76.8893 29.4675C77.5401 28.9203 77.8657 28.2926 77.8657 27.5845C77.8657 26.5544 77.41 25.8624 76.4987 25.5083C75.5873 25.1221 74.318 24.7519 72.6907 24.3978C71.6492 24.1725 70.5914 23.8988 69.5174 23.577C68.4433 23.2551 67.4506 22.8527 66.5393 22.3699C65.6606 21.8549 64.9445 21.2111 64.3913 20.4386C63.8379 19.6339 63.5613 18.6521 63.5613 17.4933C63.5613 15.3688 64.4074 13.5824 66.1 12.1339C67.8249 10.6854 70.2334 9.96111 73.3254 9.96111C76.1895 9.96111 78.4677 10.621 80.1602 11.9407C81.8851 13.2605 82.9103 15.0791 83.2359 17.3967H77.3286C76.9706 15.6264 75.6199 14.7412 73.2766 14.7412C72.1049 14.7412 71.1935 14.9664 70.5426 15.4171C69.9241 15.8678 69.615 16.4311 69.615 17.107C69.615 17.8151 70.0869 18.3785 71.0308 18.7969C71.9746 19.2154 73.2277 19.6016 74.79 19.9557C76.4824 20.342 78.0283 20.7766 79.4279 21.2594C80.8599 21.7101 81.9991 22.4021 82.8453 23.3356C83.6915 24.2368 84.1147 25.5405 84.1147 27.2465C84.1472 28.7272 83.7566 30.0631 82.943 31.254C82.1292 32.445 80.9575 33.3785 79.4279 34.0545C77.8982 34.7304 76.0918 35.0684 74.0089 35.0684ZM98.7005 34.489C96.1619 34.489 94.1276 33.8775 92.598 32.6542C91.0682 31.431 90.3034 29.2583 90.3034 26.136V15.7068H86.1537V10.5405H90.3034L91.0357 4.11884H96.5524V10.5405H103.094V15.7068H96.5524V26.1843C96.5524 27.3431 96.7965 28.1478 97.2847 28.5984C97.8054 29.0169 98.6842 29.2261 99.921 29.2261H102.948V34.489H98.7005ZM115.831 35.0684C113.748 35.0684 112.04 34.7466 110.705 34.1027C109.371 33.4268 108.378 32.5415 107.727 31.4472C107.076 30.3528 106.751 29.1457 106.751 27.8259C106.751 25.6049 107.63 23.8023 109.387 22.4182C111.145 21.0341 113.781 20.342 117.296 20.342H123.447V19.7626C123.447 18.121 122.976 16.9139 122.032 16.1414C121.088 15.3688 119.916 14.9826 118.517 14.9826C117.247 14.9826 116.141 15.2884 115.197 15.9C114.253 16.4794 113.667 17.3485 113.439 18.5072H107.337C107.499 16.7691 108.085 15.2561 109.094 13.9686C110.136 12.6811 111.47 11.6993 113.097 11.0233C114.725 10.3152 116.547 9.96111 118.565 9.96111C122.015 9.96111 124.733 10.8141 126.718 12.5201C128.704 14.2262 129.696 16.6403 129.696 19.7626V34.489H124.375L123.789 30.6263C123.073 31.9139 122.064 32.9761 120.762 33.813C119.493 34.65 117.849 35.0684 115.831 35.0684ZM117.247 30.2401C119.037 30.2401 120.421 29.6607 121.397 28.5019C122.406 27.3431 123.041 25.9107 123.301 24.2047H117.98C116.32 24.2047 115.132 24.5105 114.416 25.1221C113.7 25.7015 113.342 26.4257 113.342 27.2948C113.342 28.2283 113.7 28.9526 114.416 29.4675C115.132 29.9825 116.076 30.2401 117.247 30.2401ZM139.181 34.489L132.102 10.5405H138.302L142.5 27.7776L147.382 10.5405H154.314L159.196 27.7776L163.444 10.5405H169.644L162.516 34.489H156.023L150.848 16.5759L145.673 34.489H139.181ZM179.719 35.0684C177.636 35.0684 175.928 34.7466 174.593 34.1027C173.259 33.4268 172.266 32.5415 171.615 31.4472C170.965 30.3528 170.638 29.1457 170.638 27.8259C170.638 25.6049 171.517 23.8023 173.275 22.4182C175.032 21.0341 177.669 20.342 181.184 20.342H187.335V19.7626C187.335 18.121 186.863 16.9139 185.919 16.1414C184.976 15.3688 183.805 14.9826 182.404 14.9826C181.135 14.9826 180.029 15.2884 179.084 15.9C178.141 16.4794 177.556 17.3485 177.327 18.5072H171.224C171.387 16.7691 171.973 15.2561 172.982 13.9686C174.024 12.6811 175.359 11.6993 176.985 11.0233C178.613 10.3152 180.436 9.96111 182.453 9.96111C185.904 9.96111 188.621 10.8141 190.606 12.5201C192.592 14.2262 193.584 16.6403 193.584 19.7626V34.489H188.263L187.677 30.6263C186.961 31.9139 185.953 32.9761 184.65 33.813C183.381 34.65 181.737 35.0684 179.719 35.0684ZM181.135 30.2401C182.926 30.2401 184.308 29.6607 185.284 28.5019C186.294 27.3431 186.929 25.9107 187.188 24.2047H181.867C180.207 24.2047 179.02 24.5105 178.303 25.1221C177.588 25.7015 177.229 26.4257 177.229 27.2948C177.229 28.2283 177.588 28.9526 178.303 29.4675C179.02 29.9825 179.963 30.2401 181.135 30.2401ZM200.787 45.1113L206.401 32.8957H204.937L195.514 10.5405H202.3L209.087 27.3914L216.165 10.5405H222.805L207.427 45.1113H200.787Z" fill="white"/>
</svg>
